<svg width="40" height="40" viewBox="0 0 40 40" fill="none" xmlns="http://www.w3.org/2000/svg">
<rect width="40" height="40" rx="8" fill="#EDF0F7"/>
<path d="M23.6689 12H16.3311C13.9429 12 12 13.9429 12 16.3311V23.6691C12 26.0571 13.9429 28 16.3311 28H23.6691C26.0571 28 28 26.0571 28 23.6691V16.3311C28 13.9429 26.0571 12 23.6689 12V12ZM20 24.3749C17.5876 24.3749 15.6251 22.4124 15.6251 20C15.6251 17.5876 17.5876 15.6251 20 15.6251C22.4124 15.6251 24.3749 17.5876 24.3749 20C24.3749 22.4124 22.4124 24.3749 20 24.3749ZM24.4795 16.6569C23.7666 16.6569 23.1868 16.077 23.1868 15.3641C23.1868 14.6512 23.7666 14.0713 24.4795 14.0713C25.1924 14.0713 25.7723 14.6512 25.7723 15.3641C25.7723 16.077 25.1924 16.6569 24.4795 16.6569Z" fill="black"/>
<path d="M20 17.0909C18.396 17.0909 17.0909 18.3959 17.0909 20C17.0909 21.604 18.396 22.9091 20 22.9091C21.6041 22.9091 22.9091 21.604 22.9091 20C22.9091 18.3959 21.6041 17.0909 20 17.0909Z" fill="black"/>
<path d="M24.4794 15.0094C24.2839 15.0094 24.1247 15.1686 24.1247 15.3641C24.1247 15.5597 24.2839 15.7189 24.4794 15.7189C24.6751 15.7189 24.8343 15.5598 24.8343 15.3641C24.8343 15.1685 24.6751 15.0094 24.4794 15.0094Z" fill="black"/>
</svg>
