<svg width="40" height="40" viewBox="0 0 40 40" fill="none" xmlns="http://www.w3.org/2000/svg">
<rect width="40" height="40" rx="8" fill="#EDF0F7"/>
<path d="M23.6987 12.0033L21.7799 12C19.6242 12 18.231 13.5455 18.231 15.9376V17.7531H16.3017C16.135 17.7531 16 17.8993 16 18.0795V20.71C16 20.8903 16.1352 21.0363 16.3017 21.0363H18.231V27.6738C18.231 27.854 18.366 28 18.5327 28H20.6983C20.865 28 21 27.8539 21 27.6738V21.0363H23.6075C23.7742 21.0363 23.9092 20.8903 23.9092 20.71L23.9101 18.0795C23.9101 17.993 23.8782 17.9101 23.8217 17.8488C23.7652 17.7876 23.6883 17.7531 23.6082 17.7531H21V16.2141C21 15.4744 21.5147 15.0989 22.4058 15.0989L23.6984 15.0984C23.865 15.0984 24 14.9522 24 14.7721V12.3296C24 12.1496 23.8652 12.0037 23.6987 12.0033Z" fill="black"/>
</svg>
